<?xml version="1.0" encoding="UTF-8"?>
<svg xmlns="http://www.w3.org/2000/svg" width="1024" height="1024" viewBox="0 0 1024 1024">
  <defs>
    <!-- Dégradés bleu-gris -->
    <linearGradient id="facetA" x1="0" y1="0" x2="1" y2="1">
      <stop offset="0" stop-color="#2b4a6b"/>
      <stop offset="1" stop-color="#4b6a8c"/>
    </linearGradient>
    <linearGradient id="facetB" x1="0" y1="0" x2="1" y2="1">
      <stop offset="0" stop-color="#314f73"/>
      <stop offset="1" stop-color="#5b7b99"/>
    </linearGradient>
    <linearGradient id="facetC" x1="0" y1="0" x2="1" y2="1">
      <stop offset="0" stop-color="#2a3d56"/>
      <stop offset="1" stop-color="#506783"/>
    </linearGradient>

    <!-- Ombre portée -->
    <filter id="shadow" x="-50%" y="-50%" width="200%" height="200%">
      <feDropShadow dx="0" dy="6" stdDeviation="12" flood-color="#000" flood-opacity="0.35"/>
    </filter>
  </defs>

  <!-- Groupe du logo -->
  <g transform="translate(262,262) scale(1.25)" filter="url(#shadow)">
    <!-- Facettes du D -->
    <polygon points="180,0 360,0 440,72 260,72" fill="url(#facetA)" stroke="#1e3244" stroke-width="2"/>
    <polygon points="440,72 520,144 520,360 440,288" fill="url(#facetB)" stroke="#1e3244" stroke-width="2"/>
    <polygon points="520,360 520,520 440,592 440,360" fill="url(#facetC)" stroke="#1e3244" stroke-width="2"/>
    <polygon points="180,592 360,592 440,520 260,520" fill="url(#facetA)" stroke="#1e3244" stroke-width="2"/>
    <polygon points="100,520 180,592 180,360 100,432" fill="url(#facetB)" stroke="#1e3244" stroke-width="2"/>
    <polygon points="100,144 180,72 180,360 100,288" fill="url(#facetC)" stroke="#1e3244" stroke-width="2"/>

    <!-- Découpe intérieure -->
    <rect x="220" y="160" width="240" height="240" fill="transparent" rx="6" ry="6"/>
  </g>
</svg>

